# xmcd
#
# Track frame offsets:
#	150
#	11732
#	28985
#	48000
#	67130
#	79065
#	96382
#	112512
#	132400
#	152370
#	171072
#	184725
#	205940
#
# Disc length: 2842 seconds
#
# Revision: 0
# Processed by: cddbd v1.5PL3 Copyright (c) Steve Scherf et al.
# Submitted via: dBpowerAMP V4.0
#
DISCID=a50b180d
DTITLE=Jenny Reynolds - Bet On The Wind
DYEAR=1900
DGENRE=Country
TTITLE0=I Believe
TTITLE1=The Better Of Me
TTITLE2=Was It You
TTITLE3=Bet On The Wind
TTITLE4=Coming Up Blue
TTITLE5=She
TTITLE6=This Time
TTITLE7=I Used To Think I Knew You
TTITLE8=So Familiar
TTITLE9=This Is Ourselves
TTITLE10=Eleventh Hour Love
TTITLE11=Mercy Street
TTITLE12=Instrumental
EXTD=
EXTT0=
EXTT1=
EXTT2=
EXTT3=
EXTT4=
EXTT5=
EXTT6=
EXTT7=
EXTT8=
EXTT9=
EXTT10=
EXTT11=
EXTT12=
PLAYORDER=
